<?xml version="1.0" standalone="no"?>
<!DOCTYPE svg PUBLIC "-//W3C//DTD SVG 20010904//EN"
 "http://www.w3.org/TR/2001/REC-SVG-20010904/DTD/svg10.dtd">
<svg version="1.0" xmlns="http://www.w3.org/2000/svg"
 width="1203.000000pt" height="1203.000000pt" viewBox="0 0 1203.000000 1203.000000"
 preserveAspectRatio="xMidYMid meet">
<metadata>
Created by potrace 1.14, written by Peter Selinger 2001-2017
</metadata>
<g transform="translate(0.000000,1203.000000) scale(0.100000,-0.100000)"
fill="#000000" stroke="none">
<path d="M0 6015 l0 -6015 6015 0 6015 0 0 6015 0 6015 -6015 0 -6015 0 0
-6015z m4150 5549 l-22 -227 -505 -625 c-278 -344 -509 -634 -514 -646 -14
-32 152 -1682 171 -1701 8 -8 335 -186 725 -396 391 -209 714 -385 719 -389
10 -10 608 -1761 604 -1770 -2 -4 -514 468 -1138 1048 -624 579 -1160 1077
-1191 1105 l-56 52 -33 1101 -33 1101 358 439 c197 242 486 597 644 790 157
193 288 350 289 348 2 -1 -6 -105 -18 -230z m3654 -5 l23 -234 -429 -836
c-235 -460 -428 -843 -428 -850 1 -45 16 -49 546 -160 284 -59 517 -109 519
-111 20 -25 625 -941 623 -943 -2 -2 -264 -144 -583 -315 -319 -171 -617 -331
-662 -356 l-81 -44 -335 1012 c-185 557 -341 1031 -347 1054 l-12 41 568 990
c313 545 570 989 572 988 2 -1 13 -108 26 -236z m762 -564 c345 -423 629 -776
631 -785 2 -8 -12 -505 -31 -1104 l-34 -1089 -54 -52 c-96 -95 -2331 -2166
-2334 -2163 -1 2 132 399 297 883 191 559 306 886 318 896 10 8 337 186 726
395 389 208 711 387 716 397 12 22 171 1605 167 1664 -3 38 -39 86 -498 654
-272 337 -501 621 -508 631 -9 12 -21 96 -33 216 -10 108 -21 212 -23 231 -5
34 -5 34 13 15 11 -10 301 -365 647 -789z m-3693 -193 l567 -989 -345 -1044
c-190 -574 -346 -1047 -348 -1051 -2 -6 -1308 690 -1324 706 -3 3 135 218 307
476 213 320 320 472 334 475 12 3 239 50 506 106 267 55 495 107 508 115 14 9
22 24 22 42 0 16 -176 370 -425 857 l-425 830 22 233 c12 127 24 232 27 232 4
0 261 -445 574 -988z m1991 -2070 c187 -565 342 -1033 344 -1040 3 -10 -73
-12 -373 -10 l-378 3 -203 570 c-111 314 -206 576 -211 583 -5 8 -83 -197
-217 -572 l-209 -586 -373 0 c-262 0 -374 3 -374 11 0 6 153 474 341 1040
l341 1029 486 0 487 0 339 -1028z m-2696 -2021 c678 -629 1232 -1148 1232
-1153 0 -22 -276 -791 -285 -794 -5 -2 -572 67 -1260 154 l-1250 158 -3 511
-2 511 162 -53 163 -52 221 -307 c122 -169 223 -309 226 -311 2 -3 224 -32
494 -65 269 -33 673 -83 898 -111 224 -28 409 -49 410 -47 2 2 -38 167 -88
368 l-91 364 -504 263 c-277 145 -506 261 -509 259 -2 -3 5 -32 16 -65 11 -34
17 -61 13 -61 -5 0 -264 99 -576 220 -312 121 -569 219 -570 218 -1 -2 46
-140 106 -308 59 -168 108 -311 108 -317 1 -7 -7 -13 -16 -13 -31 0 -453 144
-453 155 0 6 70 371 155 812 85 442 155 805 155 809 0 3 4 4 8 2 4 -1 562
-518 1240 -1147z m5141 346 c85 -441 156 -809 158 -817 3 -12 -45 -32 -220
-89 -123 -40 -231 -71 -239 -70 -13 3 5 64 93 313 60 170 108 313 107 317 -2
3 -259 -92 -571 -213 -312 -121 -570 -218 -572 -216 -3 3 4 31 15 63 11 32 18
60 16 62 -2 2 -229 -114 -506 -258 -341 -178 -505 -269 -511 -283 -12 -28
-179 -710 -174 -714 2 -2 115 10 252 27 1381 171 1548 192 1555 204 4 6 99
145 211 307 l204 295 174 56 174 55 3 -505 c1 -278 -1 -508 -5 -511 -9 -7
-2513 -324 -2518 -318 -1 1 -66 182 -143 401 l-141 397 55 52 c190 180 2420
2247 2424 2248 3 0 74 -361 159 -803z m-6666 2 c-81 -420 -148 -765 -149 -767
-4 -6 -863 593 -861 600 2 9 1151 937 1155 933 1 -1 -64 -346 -145 -766z
m7235 296 c440 -355 568 -463 559 -472 -19 -19 -849 -594 -853 -590 -3 3 -294
1505 -294 1519 0 5 4 8 9 6 5 -1 265 -210 579 -463z m-4054 -672 c116 -480
214 -869 217 -865 3 4 100 397 214 875 l209 867 374 0 c352 0 374 -1 367 -17
-3 -10 -151 -442 -328 -960 l-321 -943 -517 0 c-483 0 -517 1 -524 18 -15 40
-645 1890 -645 1896 0 3 167 5 372 4 l371 -3 211 -872z m-4344 -368 c140 -25
419 -77 620 -114 l365 -67 3 -484 2 -485 -52 51 c-29 28 -314 293 -633 589
-693 642 -616 569 -585 562 14 -3 140 -26 280 -52z m9410 51 c0 -2 -289 -273
-642 -602 l-643 -598 -3 478 c-1 264 0 481 3 484 4 4 1235 236 1278 241 4 1 7
-1 7 -3z m-4360 -859 c0 -20 -168 -1685 -175 -1734 l-6 -43 -313 0 -312 0 -13
128 c-6 70 -47 472 -89 895 l-78 767 493 0 c401 0 493 -2 493 -13z m515 -1372
c223 -632 404 -1152 403 -1156 -2 -4 -214 151 -473 343 -258 193 -478 356
-487 362 -16 12 -12 63 62 797 44 431 80 790 80 798 0 8 2 12 5 10 2 -3 187
-522 410 -1154z m-1522 368 c43 -428 78 -785 78 -795 -1 -9 -58 -59 -133 -114
-73 -54 -292 -217 -487 -362 -194 -145 -354 -262 -356 -260 -4 5 809 2308 815
2308 3 0 40 -350 83 -777z m-1634 287 c651 -82 1185 -150 1186 -152 2 -2 -140
-408 -314 -903 l-317 -900 -140 -105 c-435 -327 -684 -508 -688 -502 -5 9
-986 2712 -986 2718 0 2 17 2 38 -1 20 -3 570 -73 1221 -155z m5547 123 c-124
-345 -970 -2671 -974 -2680 -5 -7 -157 101 -417 293 l-410 305 -318 901 c-175
495 -316 902 -314 905 3 2 537 71 1188 153 651 82 1193 151 1204 153 54 11 55
10 41 -30z m-2421 -1772 c193 -144 581 -433 863 -642 496 -369 513 -382 495
-400 -10 -10 -373 -344 -808 -743 l-790 -725 -736 -1 -736 0 -807 741 c-443
407 -804 744 -801 749 3 4 152 118 333 251 351 261 652 485 1125 837 164 122
302 222 307 222 6 0 10 -31 10 -70 l0 -69 255 -213 254 -213 1 -252 0 -253
-86 -108 -85 -108 -317 -74 c-174 -40 -322 -75 -328 -77 -6 -2 -154 125 -329
282 -175 157 -319 284 -321 282 -7 -6 -84 -530 -79 -535 2 -3 167 -63 367
-133 l362 -129 438 130 437 130 439 -130 438 -130 363 129 c199 71 364 130
365 132 3 3 -61 441 -76 529 -2 8 -121 -92 -297 -250 -161 -146 -306 -275
-320 -287 l-27 -21 -328 76 -329 77 -83 105 -83 105 0 255 0 255 254 213 255
214 0 75 0 74 28 -20 c15 -11 185 -137 377 -280z"/>
<path d="M4605 6678 c-50 -27 -58 -71 -22 -114 47 -55 127 -23 127 51 0 24 -7
39 -26 54 -30 23 -49 26 -79 9z"/>
<path d="M4799 6490 c-29 -17 -43 -65 -27 -97 40 -85 174 -29 138 58 -19 45
-70 63 -111 39z"/>
<path d="M4996 6289 c-33 -26 -36 -79 -6 -109 30 -30 83 -27 109 6 28 35 26
69 -4 99 -30 30 -64 32 -99 4z"/>
<path d="M7394 6667 c-55 -47 -26 -127 46 -127 41 0 65 19 75 62 6 22 1 33
-23 58 -37 36 -62 38 -98 7z"/>
<path d="M7185 6475 c-30 -30 -32 -64 -4 -99 26 -33 79 -36 109 -6 30 30 27
83 -6 109 -35 28 -69 26 -99 -4z"/>
<path d="M6985 6285 c-32 -31 -33 -74 -2 -103 72 -67 172 34 102 103 -13 14
-36 25 -50 25 -14 0 -37 -11 -50 -25z"/>
<path d="M2160 7250 c-45 -45 -9 -130 54 -130 34 0 76 41 76 75 0 61 -87 98
-130 55z"/>
<path d="M1997 7109 c-30 -17 -39 -55 -23 -94 24 -58 102 -61 131 -5 36 71
-39 139 -108 99z"/>
<path d="M1813 6944 c-20 -20 -24 -31 -19 -57 18 -93 146 -85 146 8 0 71 -76
100 -127 49z"/>
<path d="M9812 7247 c-29 -31 -28 -72 3 -102 30 -30 64 -32 99 -4 18 15 26 30
26 53 0 67 -83 101 -128 53z"/>
<path d="M9981 7094 c-28 -35 -26 -69 4 -99 30 -30 64 -32 99 -4 33 26 36 79
6 109 -30 30 -83 27 -109 -6z"/>
<path d="M10153 6944 c-20 -20 -24 -31 -19 -57 18 -93 146 -85 146 8 0 71 -76
100 -127 49z"/>
<path d="M1726 6169 c-33 -26 -36 -79 -6 -109 49 -49 139 -3 126 65 -12 61
-71 83 -120 44z"/>
<path d="M1981 6094 c-28 -35 -26 -69 4 -99 30 -30 64 -32 99 -4 33 26 36 79
6 109 -30 30 -83 27 -109 -6z"/>
<path d="M2257 6040 c-34 -27 -37 -80 -7 -110 30 -30 83 -27 109 6 26 33 27
65 4 93 -27 32 -73 37 -106 11z"/>
<path d="M10255 6165 c-32 -31 -33 -74 -2 -103 72 -67 172 34 102 103 -13 14
-36 25 -50 25 -14 0 -37 -11 -50 -25z"/>
<path d="M9988 6103 c-56 -64 3 -156 81 -124 76 32 54 141 -29 141 -23 0 -43
-7 -52 -17z"/>
<path d="M9725 6035 c-50 -49 -20 -125 50 -125 69 0 100 76 50 125 -13 14 -36
25 -50 25 -14 0 -37 -11 -50 -25z"/>
<path d="M3110 4685 c0 -8 159 -497 163 -501 1 -1 232 -19 512 -40 281 -20
511 -37 512 -38 1 -1 13 -107 28 -236 15 -129 28 -236 29 -237 1 -2 59 151
129 339 69 188 124 345 121 347 -2 3 -278 30 -613 60 l-609 56 -136 129 c-75
70 -136 125 -136 121z"/>
<path d="M3330 4034 c0 -5 30 -85 66 -177 41 -103 70 -167 78 -164 339 135
673 270 678 276 4 3 -155 19 -355 34 -199 16 -386 31 -414 34 -29 3 -53 2 -53
-3z"/>
<path d="M8827 4559 c-88 -83 -146 -129 -160 -129 -58 -1 -1187 -107 -1192
-112 -5 -5 225 -642 244 -676 4 -6 17 81 30 195 12 115 24 222 27 238 l5 31
512 37 c281 21 512 39 513 40 5 6 164 500 162 503 -2 1 -65 -56 -141 -127z"/>
<path d="M8305 4005 c-375 -31 -389 -32 -355 -47 68 -31 664 -268 666 -265 3
3 134 338 134 343 0 6 -15 5 -445 -31z"/>
<path d="M5781 2663 c-54 -45 -24 -133 45 -133 71 0 103 86 48 129 -33 26 -65
27 -93 4z"/>
<path d="M6212 2673 c-7 -3 -19 -18 -28 -34 -26 -52 6 -109 61 -109 58 0 88
42 72 101 -9 36 -64 59 -105 42z"/>
<path d="M5890 1408 c-80 -99 -149 -187 -153 -194 -5 -9 43 -80 145 -214 144
-188 154 -199 169 -182 9 9 80 100 158 201 90 118 138 188 133 195 -36 45
-304 376 -305 376 -1 0 -67 -82 -147 -182z"/>
</g>
</svg>
